<svg id="Capa_1" fill="white" enable-background="new 0 0 512 512" height="512" viewBox="0 0 512 512" width="512" xmlns="http://www.w3.org/2000/svg"><g><circle cx="311" cy="184" r="17"/><circle cx="407" cy="328" r="17"/><path d="m497 0h-281.166c-8.284 0-15 6.716-15 15v497h296.166c8.284 0 15-6.716 15-15v-482c0-8.284-6.716-15-15-15zm-171 228.531v195.469c0 8.284-6.716 15-15 15s-15-6.716-15-15v-195.469c-18.58-6.275-32-23.859-32-44.531s13.42-38.256 32-44.531v-51.469c0-8.284 6.716-15 15-15s15 6.716 15 15v51.469c18.58 6.275 32 23.859 32 44.531s-13.42 38.256-32 44.531zm96 144v51.469c0 8.284-6.716 15-15 15s-15-6.716-15-15v-51.469c-18.58-6.275-32-23.859-32-44.531s13.42-38.256 32-44.531v-195.469c0-8.284 6.716-15 15-15s15 6.716 15 15v195.469c18.58 6.275 32 23.859 32 44.531s-13.42 38.256-32 44.531z"/><path d="m121.204 188.814v25.518c-1.667.654-3.32 1.34-4.959 2.059l-18.049-18.049c-5.043-5.043-12.94-5.838-18.886-1.901-10.495 6.946-20.344 14.996-29.277 23.928-8.943 8.944-16.994 18.795-23.928 29.278-3.933 5.947-3.137 13.84 1.904 18.882l18.048 18.048c-.719 1.641-1.406 3.294-2.06 4.962h-25.517c-7.13 0-13.275 5.02-14.698 12.006-2.509 12.318-3.782 24.977-3.782 37.623s1.273 25.304 3.782 37.623c1.423 6.986 7.568 12.006 14.698 12.006h25.517c.654 1.668 1.341 3.323 2.059 4.962l-18.044 18.045c-5.041 5.041-5.838 12.935-1.905 18.881 6.935 10.485 14.986 20.336 23.931 29.281 8.941 8.94 18.791 16.99 29.277 23.927 5.947 3.934 13.841 3.139 18.883-1.903l18.045-18.045c1.64.72 3.294 1.406 4.962 2.06v25.514c0 7.131 5.02 13.275 12.007 14.698 12.33 2.511 24.988 3.784 37.622 3.784v-133.889c-20.372 0-36.945-16.573-36.945-36.944 0-20.372 16.574-36.945 36.945-36.945v-133.852c-12.656 0-25.303 1.233-37.624 3.744-6.987 1.424-12.006 7.569-12.006 14.699z"/></g></svg>