<svg id="Capa_1" enable-background="new 0 0 507.992 507.992" height="512" viewBox="0 0 507.992 507.992" width="512" xmlns="http://www.w3.org/2000/svg"><g><path d="m433.708 419.368c3.903 3.903 3.903 10.232 0 14.135s-10.232 3.903-14.135 0-3.903-10.232 0-14.135c3.903-3.904 10.231-3.904 14.135 0zm-359.313-344.973c99.193-99.193 260.017-99.193 359.21 0 87.912 87.912 97.896 224.226 29.98 323.149-7.551 10.995-24.026-.319-16.474-11.314l-.013-.01c62.551-91.132 53.349-216.699-27.635-297.682-14.545-14.545-30.532-26.765-47.496-36.679.096.138.197.273.293.412 8.601 12.439 40.74 60.471 40.74 130.729 0 131.032-106.968 230-230 230h-.02c-70.39 0-117.326-31.384-131.123-41.033 9.915 16.964 22.135 32.951 36.679 47.496 81.052 81.053 206.766 90.203 297.917 27.476l.001.017c10.805-7.438 22.139 9.025 11.334 16.463-98.943 68.1-235.41 58.17-323.394-29.814-99.192-99.193-99.192-260.017.001-359.21zm108.605 318.605c114 0 210-92.774 210-210 0-57.193-22.597-110.663-63.61-150.561-81.713-27.735-175.708-9.046-240.853 56.098-65.133 65.134-83.827 159.109-56.111 240.813 39.895 41.053 93.279 63.65 150.574 63.65z"/></g></svg>